<svg version="1.2" baseProfile="tiny-ps" xmlns="http://www.w3.org/2000/svg" viewBox="0 0 314 60" width="314" height="60">
	<title>logo-svg</title>
	<defs>
		<linearGradient id="grd1" gradientUnits="userSpaceOnUse"  x1="37.48" y1="30.69" x2="72.42" y2="30.69">
			<stop offset="0" stop-color="#347ab7"  />
			<stop offset="1" stop-color="#2c5595"  />
		</linearGradient>
		<linearGradient id="grd2" gradientUnits="userSpaceOnUse"  x1="2667.243" y1="1147.557" x2="4440.114" y2="1147.557">
			<stop offset="0" stop-color="#347ab7"  />
			<stop offset="1" stop-color="#2c5595"  />
		</linearGradient>
		<linearGradient id="grd3" gradientUnits="userSpaceOnUse"  x1="38.252" y1="1252.357" x2="1423.352" y2="1252.357">
			<stop offset="0" stop-color="#347ab7"  />
			<stop offset="1" stop-color="#2c5595"  />
		</linearGradient>
		<linearGradient id="grd4" gradientUnits="userSpaceOnUse"  x1="139.68" y1="32.93" x2="312.87" y2="32.93">
			<stop offset="0" stop-color="#2c5595"  />
			<stop offset="0" stop-color="#000000"  />
			<stop offset="1" stop-color="#000000"  />
		</linearGradient>
	</defs>
	<style>
		tspan { white-space:pre }
		.shp0 { fill: none } 
		.shp1 { fill: #2c5595;stroke: url(#grd1);stroke-width: 4 } 
		.shp2 { fill: #2c5595;stroke: url(#grd2);stroke-width: 4 } 
		.shp3 { fill: #2c5595;stroke: url(#grd3);stroke-width: 4 } 
		.shp4 { fill: none;stroke: #231f20;stroke-width: 0.75 } 
		.shp5 { fill: #010101 } 
		.shp6 { fill: url(#grd4) } 
		.shp7 { fill: #ffffff } 
		.shp8 { fill: #828282 } 
	</style>
	<path id="Layer" class="shp0" d="M238.61 -185.49C241.73 -185.49 243.69 -186.1 244.5 -187.33C244.68 -187.59 244.85 -187.86 245 -188.14C245.14 -188.42 245.27 -188.71 245.37 -189.01C245.47 -189.3 245.55 -189.61 245.61 -189.92C245.67 -190.23 245.71 -190.54 245.72 -190.86C245.73 -191.14 245.71 -191.42 245.67 -191.7C245.63 -191.98 245.57 -192.25 245.48 -192.52C245.4 -192.79 245.29 -193.05 245.16 -193.3C245.04 -193.55 244.89 -193.78 244.72 -194.01C244.59 -194.2 244.44 -194.38 244.28 -194.55C244.12 -194.72 243.95 -194.88 243.76 -195.02C243.58 -195.16 243.38 -195.28 243.17 -195.39C242.97 -195.5 242.75 -195.59 242.53 -195.66C242.14 -195.73 241.75 -195.8 241.36 -195.85C240.97 -195.9 240.57 -195.94 240.18 -195.97C239.79 -195.99 239.39 -196.01 239 -196.02C238.6 -196.02 238.2 -196.02 237.81 -196L230.12 -196L230.12 -185.49L238.61 -185.49Z" />
	<path id="Layer" fill-rule="evenodd" class="shp1" d="M68.21 33.78C68.57 34.25 68.89 34.74 69.17 35.26C69.45 35.78 69.68 36.32 69.87 36.88C70.06 37.44 70.2 38.01 70.29 38.59C70.38 39.17 70.43 39.76 70.42 40.35C70.42 40.75 70.4 41.15 70.36 41.55C70.32 41.94 70.26 42.34 70.17 42.73C70.09 43.12 69.99 43.51 69.86 43.89C69.73 44.26 69.59 44.64 69.42 45C69.24 45.38 69.04 45.76 68.83 46.12C68.61 46.49 68.38 46.84 68.13 47.18C67.88 47.52 67.61 47.85 67.32 48.16C67.04 48.47 66.74 48.77 66.42 49.05C66.07 49.35 65.7 49.64 65.32 49.9C64.95 50.17 64.56 50.42 64.15 50.65C63.75 50.88 63.34 51.09 62.92 51.28C62.5 51.48 62.07 51.65 61.63 51.8C61.16 51.97 60.69 52.11 60.21 52.24C59.73 52.36 59.25 52.47 58.76 52.55C58.28 52.64 57.79 52.7 57.29 52.74C56.8 52.78 56.3 52.8 55.81 52.8L39.48 52.8L39.55 8.6L52.2 8.6C56.32 8.6 59.61 9.76 62.06 12.07C62.34 12.32 62.6 12.59 62.85 12.86C63.1 13.14 63.33 13.43 63.55 13.74C63.77 14.04 63.97 14.35 64.16 14.67C64.35 15 64.52 15.33 64.67 15.67C64.82 16 64.96 16.34 65.07 16.68C65.19 17.03 65.28 17.38 65.36 17.73C65.44 18.08 65.49 18.44 65.53 18.8C65.57 19.16 65.59 19.53 65.59 19.89C65.6 20.32 65.57 20.76 65.52 21.19C65.47 21.62 65.4 22.05 65.29 22.47C65.18 22.89 65.05 23.31 64.89 23.71C64.73 24.12 64.54 24.51 64.33 24.89C64.15 25.24 63.94 25.57 63.72 25.89C63.5 26.21 63.25 26.52 62.99 26.81C62.73 27.1 62.46 27.38 62.16 27.64C61.87 27.9 61.56 28.14 61.24 28.36L60.63 28.77C61.49 29.04 62.24 29.31 62.87 29.58C63.39 29.81 63.9 30.07 64.4 30.36C64.89 30.66 65.36 30.98 65.81 31.34C66.26 31.69 66.69 32.07 67.09 32.48C67.49 32.89 67.86 33.32 68.21 33.78ZM42.61 27.83L52.06 27.83C52.32 27.83 52.57 27.83 52.83 27.83C53.08 27.82 53.34 27.81 53.59 27.79C53.85 27.78 54.1 27.75 54.36 27.73C54.61 27.7 54.87 27.67 55.12 27.63C55.33 27.59 55.54 27.55 55.74 27.51C55.95 27.46 56.16 27.41 56.36 27.35C56.57 27.3 56.77 27.23 56.97 27.17C57.17 27.1 57.37 27.03 57.57 26.95C57.9 26.8 58.21 26.64 58.52 26.45C58.82 26.27 59.12 26.07 59.4 25.85C59.69 25.64 59.96 25.4 60.21 25.16C60.47 24.91 60.71 24.65 60.94 24.37C61.21 24.06 61.44 23.73 61.65 23.38C61.85 23.03 62.02 22.66 62.16 22.27C62.3 21.89 62.4 21.5 62.46 21.09C62.52 20.69 62.55 20.29 62.54 19.88C62.54 19.53 62.52 19.17 62.47 18.83C62.42 18.48 62.34 18.13 62.24 17.79C62.14 17.45 62.01 17.12 61.87 16.8C61.72 16.48 61.54 16.17 61.35 15.88C61.13 15.56 60.89 15.25 60.63 14.95C60.37 14.66 60.09 14.39 59.79 14.14C59.49 13.88 59.18 13.65 58.85 13.44C58.52 13.23 58.18 13.04 57.82 12.88C57.38 12.68 56.93 12.5 56.48 12.35C56.02 12.2 55.55 12.08 55.08 11.98C54.61 11.89 54.13 11.82 53.65 11.77C53.17 11.73 52.69 11.72 52.21 11.73L42.61 11.73L42.61 27.83ZM63.03 47.7C63.41 47.45 63.78 47.18 64.12 46.89C64.47 46.59 64.79 46.27 65.1 45.94C65.4 45.6 65.68 45.24 65.94 44.87C66.17 44.54 66.37 44.19 66.55 43.83C66.72 43.47 66.87 43.1 67 42.72C67.12 42.34 67.21 41.94 67.27 41.55C67.33 41.15 67.37 40.75 67.37 40.35C67.37 39.92 67.34 39.49 67.27 39.06C67.19 38.63 67.09 38.22 66.95 37.81C66.8 37.4 66.63 37 66.42 36.63C66.21 36.25 65.97 35.89 65.7 35.55C65.44 35.21 65.16 34.88 64.86 34.58C64.56 34.27 64.24 33.98 63.9 33.72C63.56 33.45 63.21 33.21 62.84 32.98C62.47 32.76 62.09 32.56 61.7 32.39C61.05 32.13 60.38 31.91 59.71 31.72C59.03 31.53 58.35 31.37 57.66 31.25C56.97 31.13 56.27 31.05 55.57 31C54.87 30.95 54.17 30.94 53.47 30.96L42.61 30.96L42.61 49.73L55.73 49.73C56.26 49.74 56.79 49.72 57.31 49.67C57.84 49.62 58.36 49.53 58.87 49.42C59.39 49.3 59.89 49.16 60.39 48.98C60.89 48.81 61.38 48.6 61.85 48.37C62.26 48.17 62.65 47.95 63.03 47.7Z" />
	<path id="Layer" class="shp2" d="M88.74 53.27C87.76 53.28 86.78 53.21 85.8 53.09C84.83 52.96 83.87 52.77 82.92 52.51C81.97 52.25 81.05 51.93 80.14 51.54C79.24 51.16 78.36 50.71 77.52 50.21C75.82 49.21 74.27 47.99 72.88 46.59C71.5 45.19 70.31 43.61 69.34 41.9C68.36 40.19 67.62 38.36 67.12 36.45C66.61 34.55 66.36 32.59 66.37 30.62C66.36 29.63 66.42 28.65 66.55 27.67C66.67 26.69 66.86 25.73 67.11 24.77C67.37 23.82 67.68 22.89 68.06 21.98C68.44 21.07 68.88 20.18 69.37 19.33C69.86 18.48 70.4 17.67 70.99 16.89C71.58 16.12 72.23 15.38 72.91 14.69C73.6 13.99 74.33 13.35 75.11 12.75C75.88 12.15 76.69 11.6 77.53 11.11C79.04 10.22 80.66 9.51 82.34 9C84.02 8.49 85.75 8.18 87.5 8.09C89.26 7.99 91.01 8.1 92.74 8.42C94.47 8.74 96.15 9.26 97.75 9.98C98.47 10.3 99.17 10.66 99.85 11.05C100.52 11.45 101.18 11.87 101.82 12.33C102.46 12.79 103.07 13.28 103.65 13.81C104.24 14.33 104.8 14.88 105.33 15.46L102.94 17.57C102.5 17.07 102.03 16.59 101.53 16.13C101.04 15.68 100.52 15.25 99.98 14.85C99.44 14.45 98.88 14.08 98.3 13.74C97.73 13.4 97.13 13.09 96.52 12.81C95.91 12.53 95.29 12.28 94.65 12.07C94.02 11.85 93.37 11.68 92.72 11.53C92.06 11.39 91.4 11.28 90.74 11.21C90.07 11.14 89.4 11.11 88.73 11.11C87.89 11.1 87.04 11.15 86.2 11.26C85.37 11.37 84.54 11.54 83.72 11.76C82.91 11.98 82.11 12.25 81.33 12.58C80.55 12.91 79.8 13.29 79.07 13.72C78.35 14.15 77.65 14.63 76.99 15.14C76.33 15.66 75.7 16.22 75.11 16.82C74.52 17.42 73.97 18.06 73.46 18.73C72.95 19.4 72.49 20.1 72.07 20.83C71.64 21.57 71.25 22.33 70.92 23.12C70.59 23.91 70.32 24.72 70.1 25.55C69.87 26.37 69.71 27.21 69.6 28.06C69.49 28.91 69.44 29.76 69.45 30.62C69.44 31.48 69.49 32.34 69.59 33.19C69.7 34.04 69.86 34.89 70.08 35.72C70.3 36.55 70.57 37.36 70.9 38.16C71.23 38.95 71.62 39.72 72.05 40.46C72.47 41.19 72.93 41.89 73.44 42.56C73.95 43.23 74.5 43.87 75.09 44.47C75.68 45.07 76.31 45.63 76.97 46.15C77.63 46.67 78.33 47.14 79.05 47.57C80.39 48.36 81.83 48.98 83.32 49.42C84.82 49.86 86.36 50.11 87.92 50.17C89.48 50.23 91.04 50.1 92.56 49.78C94.09 49.47 95.57 48.96 96.97 48.28C97.62 47.97 98.25 47.62 98.85 47.24C99.46 46.86 100.05 46.45 100.61 46C101.18 45.55 101.71 45.08 102.22 44.57C102.74 44.07 103.22 43.54 103.67 42.98L106.12 44.88C105.6 45.54 105.05 46.16 104.46 46.76C103.87 47.35 103.25 47.91 102.6 48.43C101.95 48.96 101.27 49.44 100.56 49.89C99.85 50.34 99.12 50.74 98.37 51.11C97.62 51.47 96.85 51.79 96.07 52.06C95.29 52.33 94.49 52.56 93.68 52.74C92.87 52.92 92.05 53.06 91.22 53.15C90.4 53.23 89.57 53.28 88.74 53.27L88.74 53.27Z" />
	<path id="Layer" class="shp3" d="M36.2 52.79L32.12 52.79L16.28 33.95L2 53.54L2 8.59L5.06 8.59L5.06 44.02L30.83 8.59L34.71 8.59L18.12 31.3L36.2 52.79Z" />
	<path id="Layer" class="shp4" d="M123.57 6.93L123.57 55.2" />
	<path id="Layer" class="shp5" d="M150.26 7.01L146.2 12.86L151.7 19.46L147.82 19.46L142.94 13.62L142.94 19.46L139.84 19.46L139.84 7.01L142.94 7.01L142.94 12.61L146.94 7.01L150.26 7.01Z" />
	<path id="Layer" class="shp5" d="M162.14 17.18L162.14 19.46L152.94 19.46L152.94 7.01L161.99 7.01L161.99 9.29L155.99 9.29L155.99 11.9L161.67 11.9L161.67 14.18L155.99 14.18L155.99 17.18L162.14 17.18Z" />
	<path id="Layer" class="shp5" d="M172.94 7.81L172.94 10.24C172.63 10.08 172.31 9.94 171.99 9.81C171.66 9.69 171.33 9.58 171 9.48C170.66 9.39 170.32 9.31 169.98 9.26C169.63 9.2 169.29 9.15 168.94 9.13C168.83 9.12 168.71 9.13 168.6 9.13C168.48 9.14 168.37 9.16 168.26 9.18C168.14 9.21 168.03 9.24 167.93 9.28C167.82 9.31 167.71 9.36 167.61 9.41C167.54 9.44 167.47 9.48 167.41 9.54C167.35 9.59 167.3 9.64 167.26 9.71C167.22 9.78 167.18 9.85 167.16 9.92C167.14 9.99 167.12 10.07 167.12 10.15C167.12 10.22 167.13 10.28 167.15 10.34C167.17 10.41 167.19 10.47 167.22 10.53C167.25 10.59 167.29 10.64 167.33 10.69C167.37 10.74 167.42 10.79 167.47 10.83C167.6 10.92 167.74 11.01 167.88 11.09C168.02 11.17 168.16 11.24 168.31 11.31C168.45 11.38 168.6 11.45 168.75 11.5C168.9 11.56 169.06 11.61 169.21 11.66C169.4 11.73 169.59 11.8 169.78 11.88C169.96 11.96 170.15 12.04 170.33 12.12C170.52 12.2 170.7 12.29 170.88 12.38C171.06 12.47 171.24 12.56 171.42 12.66C171.57 12.73 171.71 12.8 171.85 12.89C171.98 12.97 172.12 13.06 172.24 13.16C172.37 13.26 172.49 13.36 172.61 13.48C172.73 13.59 172.84 13.71 172.94 13.83C173.04 13.97 173.13 14.13 173.21 14.29C173.29 14.45 173.35 14.61 173.41 14.78C173.46 14.95 173.49 15.12 173.52 15.3C173.54 15.48 173.55 15.65 173.54 15.83C173.55 16.09 173.53 16.36 173.47 16.62C173.42 16.87 173.33 17.13 173.22 17.36C173.11 17.6 172.96 17.83 172.8 18.03C172.63 18.24 172.44 18.42 172.23 18.58C171.98 18.76 171.72 18.91 171.44 19.05C171.16 19.18 170.88 19.29 170.58 19.38C170.29 19.46 169.98 19.52 169.68 19.55C169.37 19.59 169.07 19.6 168.76 19.58C168.37 19.59 167.98 19.57 167.59 19.52C167.2 19.48 166.81 19.41 166.43 19.31C166.05 19.22 165.68 19.1 165.31 18.96C164.95 18.81 164.59 18.65 164.25 18.46L164.25 15.73C164.42 15.85 164.6 15.97 164.78 16.08C164.96 16.19 165.14 16.3 165.32 16.4C165.51 16.5 165.69 16.6 165.88 16.69C166.07 16.78 166.27 16.87 166.46 16.95C166.62 17.01 166.78 17.07 166.94 17.12C167.11 17.17 167.27 17.21 167.44 17.24C167.61 17.27 167.78 17.3 167.95 17.31C168.12 17.33 168.29 17.34 168.46 17.34C169.68 17.34 170.29 16.95 170.29 16.19C170.29 16.12 170.28 16.05 170.26 15.98C170.25 15.92 170.22 15.85 170.19 15.79C170.16 15.73 170.13 15.67 170.08 15.61C170.04 15.56 169.99 15.51 169.94 15.46C169.81 15.37 169.67 15.28 169.53 15.2C169.39 15.11 169.24 15.04 169.09 14.96C168.95 14.89 168.8 14.83 168.64 14.77C168.49 14.71 168.34 14.66 168.18 14.61C167.99 14.55 167.8 14.48 167.62 14.41C167.43 14.34 167.24 14.26 167.06 14.19C166.88 14.11 166.69 14.03 166.51 13.95C166.33 13.86 166.15 13.78 165.97 13.69C165.83 13.62 165.7 13.53 165.57 13.44C165.45 13.35 165.33 13.26 165.21 13.15C165.09 13.05 164.98 12.94 164.88 12.82C164.78 12.71 164.68 12.59 164.59 12.46C164.49 12.32 164.4 12.16 164.32 12C164.24 11.84 164.18 11.68 164.13 11.51C164.08 11.34 164.04 11.17 164.02 10.99C164 10.81 163.99 10.64 164 10.46C163.99 10.21 164.02 9.96 164.07 9.71C164.13 9.47 164.21 9.23 164.33 9.01C164.44 8.78 164.58 8.57 164.74 8.38C164.9 8.19 165.09 8.02 165.29 7.87C165.54 7.7 165.8 7.54 166.08 7.41C166.35 7.28 166.64 7.17 166.93 7.08C167.23 7 167.52 6.94 167.83 6.9C168.13 6.87 168.44 6.86 168.74 6.87C169.1 6.88 169.46 6.9 169.82 6.94C170.18 6.99 170.54 7.05 170.89 7.13C171.24 7.2 171.59 7.3 171.93 7.42C172.27 7.53 172.61 7.66 172.94 7.81L172.94 7.81Z" />
	<path id="Layer" class="shp5" d="M187.94 7.01L187.94 19.46L184.84 19.46L184.84 14.46L178.64 14.46L178.64 19.46L175.54 19.46L175.54 7.01L178.64 7.01L178.64 12.01L184.84 12.01L184.84 7.01L187.94 7.01Z" />
	<path id="Layer" fill-rule="evenodd" class="shp5" d="M198.02 7.01L203.55 19.46L200.21 19.46L199.21 17L193.63 17L192.68 19.46L189.4 19.46L194.4 7.01L198.02 7.01ZM198.28 14.82L196.28 9.99L194.44 14.82L198.28 14.82Z" />
	<path id="Layer" class="shp5" d="M215.26 7.01L209.51 19.62L208.16 19.62L202.16 7.01L205.54 7.01L208.83 14.12L211.94 7.01L215.26 7.01Z" />
	<path id="Layer" fill-rule="evenodd" class="shp5" d="M221.72 7.01L227.1 7.01C227.37 7 227.63 7.01 227.9 7.04C228.17 7.07 228.43 7.13 228.68 7.21C228.94 7.29 229.19 7.39 229.42 7.51C229.66 7.63 229.89 7.78 230.1 7.94C230.27 8.07 230.42 8.21 230.56 8.38C230.7 8.54 230.81 8.72 230.91 8.91C231 9.09 231.08 9.29 231.13 9.5C231.17 9.71 231.2 9.92 231.2 10.13C231.2 10.4 231.16 10.66 231.08 10.92C231 11.17 230.88 11.41 230.73 11.63C230.58 11.85 230.4 12.05 230.19 12.21C229.98 12.38 229.75 12.51 229.5 12.61C229.69 12.65 229.88 12.71 230.07 12.78C230.25 12.85 230.43 12.94 230.6 13.04C230.77 13.14 230.93 13.26 231.08 13.38C231.23 13.51 231.37 13.65 231.5 13.8C231.61 13.94 231.71 14.09 231.8 14.25C231.88 14.41 231.96 14.57 232.01 14.74C232.07 14.91 232.11 15.09 232.14 15.26C232.17 15.44 232.18 15.62 232.18 15.8C232.19 16.05 232.17 16.3 232.13 16.54C232.08 16.79 232.01 17.03 231.91 17.26C231.81 17.49 231.69 17.7 231.55 17.91C231.4 18.11 231.24 18.29 231.05 18.46C230.82 18.64 230.57 18.8 230.32 18.94C230.06 19.07 229.78 19.19 229.5 19.27C229.22 19.36 228.94 19.41 228.65 19.45C228.36 19.48 228.06 19.48 227.77 19.46L221.72 19.46L221.72 7.01ZM224.82 9.29L224.82 11.95L226.44 11.95C226.54 11.96 226.65 11.95 226.75 11.94C226.86 11.93 226.96 11.91 227.06 11.87C227.16 11.84 227.25 11.8 227.34 11.75C227.43 11.7 227.52 11.64 227.6 11.57C227.67 11.51 227.73 11.44 227.79 11.36C227.84 11.29 227.89 11.2 227.93 11.12C227.96 11.03 227.99 10.94 228 10.85C228.02 10.76 228.03 10.66 228.02 10.57C228.03 10.48 228.02 10.38 228.01 10.29C227.99 10.2 227.96 10.11 227.93 10.02C227.89 9.93 227.84 9.85 227.79 9.78C227.73 9.7 227.67 9.63 227.6 9.57C227.52 9.5 227.43 9.45 227.34 9.4C227.25 9.35 227.15 9.31 227.06 9.27C226.96 9.24 226.85 9.22 226.75 9.21C226.65 9.2 226.54 9.19 226.44 9.2L224.82 9.29ZM224.82 14.24L224.82 17.18L226.56 17.18C226.71 17.19 226.87 17.19 227.02 17.18C227.17 17.17 227.33 17.15 227.48 17.12C227.63 17.09 227.78 17.06 227.92 17.01C228.07 16.96 228.21 16.9 228.35 16.83C228.44 16.76 228.53 16.69 228.6 16.6C228.67 16.51 228.73 16.41 228.78 16.31C228.83 16.2 228.86 16.09 228.88 15.98C228.9 15.87 228.9 15.75 228.89 15.64C228.89 15.54 228.88 15.44 228.86 15.35C228.83 15.25 228.8 15.16 228.75 15.08C228.71 14.99 228.65 14.91 228.59 14.83C228.52 14.76 228.45 14.7 228.37 14.64C228.27 14.57 228.16 14.52 228.05 14.47C227.94 14.42 227.83 14.38 227.71 14.34C227.59 14.31 227.47 14.29 227.35 14.28C227.23 14.27 227.11 14.26 226.99 14.27L224.82 14.24Z" />
	<path id="Layer" class="shp5" d="M243.32 7.01L246.42 7.01L246.42 14.07C246.45 14.45 246.43 14.84 246.38 15.21C246.32 15.59 246.22 15.96 246.08 16.32C245.94 16.68 245.76 17.02 245.55 17.34C245.34 17.65 245.09 17.95 244.81 18.21C244.14 18.67 243.4 19.03 242.62 19.27C241.84 19.51 241.03 19.63 240.21 19.63C239.39 19.63 238.58 19.51 237.8 19.27C237.02 19.03 236.28 18.67 235.61 18.21C235.33 17.95 235.07 17.66 234.85 17.35C234.63 17.03 234.45 16.69 234.31 16.34C234.16 15.98 234.06 15.61 234 15.24C233.94 14.86 233.92 14.47 233.94 14.09L233.94 7.01L237.05 7.01L237.05 14.16C237.04 14.35 237.05 14.55 237.09 14.74C237.12 14.93 237.17 15.12 237.25 15.3C237.32 15.48 237.41 15.65 237.52 15.81C237.63 15.97 237.76 16.12 237.9 16.25C238.22 16.5 238.58 16.7 238.96 16.84C239.35 16.97 239.75 17.04 240.16 17.04C240.57 17.04 240.97 16.97 241.36 16.84C241.74 16.7 242.1 16.5 242.42 16.25C242.57 16.1 242.7 15.94 242.82 15.76C242.93 15.59 243.02 15.4 243.1 15.2C243.17 15.01 243.22 14.8 243.26 14.6C243.29 14.39 243.29 14.18 243.28 13.97L243.32 7.01Z" />
	<path id="Layer" class="shp5" d="M257.56 7.81L257.56 10.24C257.25 10.08 256.93 9.94 256.61 9.81C256.28 9.69 255.95 9.58 255.62 9.48C255.28 9.39 254.94 9.31 254.6 9.25C254.25 9.2 253.91 9.15 253.56 9.13C253.45 9.12 253.33 9.13 253.22 9.14C253.1 9.14 252.99 9.16 252.88 9.18C252.76 9.21 252.65 9.24 252.55 9.28C252.44 9.31 252.33 9.36 252.23 9.41C252.16 9.44 252.09 9.48 252.03 9.54C251.97 9.59 251.92 9.64 251.88 9.71C251.84 9.78 251.8 9.85 251.78 9.92C251.76 9.99 251.74 10.07 251.74 10.15C251.74 10.22 251.75 10.28 251.77 10.34C251.79 10.41 251.81 10.47 251.84 10.53C251.87 10.59 251.91 10.64 251.95 10.69C251.99 10.74 252.04 10.79 252.09 10.83C252.22 10.92 252.36 11.01 252.5 11.09C252.64 11.17 252.78 11.24 252.93 11.31C253.07 11.38 253.22 11.45 253.37 11.5C253.52 11.56 253.68 11.61 253.83 11.66C254.02 11.73 254.21 11.8 254.4 11.88C254.58 11.96 254.77 12.04 254.95 12.12C255.14 12.2 255.32 12.29 255.5 12.38C255.68 12.47 255.86 12.56 256.04 12.66C256.18 12.73 256.31 12.82 256.45 12.91C256.58 12.99 256.7 13.09 256.82 13.19C256.94 13.29 257.06 13.4 257.16 13.52C257.27 13.63 257.37 13.75 257.47 13.88C257.57 14.02 257.66 14.18 257.74 14.34C257.82 14.5 257.88 14.66 257.94 14.83C257.99 15 258.02 15.17 258.05 15.35C258.07 15.53 258.08 15.7 258.07 15.88C258.08 16.14 258.06 16.41 258 16.67C257.95 16.92 257.86 17.18 257.75 17.41C257.64 17.65 257.49 17.88 257.33 18.08C257.16 18.29 256.97 18.47 256.76 18.63C256.51 18.81 256.25 18.96 255.97 19.1C255.7 19.23 255.41 19.34 255.12 19.42C254.82 19.51 254.52 19.57 254.22 19.6C253.91 19.64 253.61 19.65 253.3 19.63C252.91 19.63 252.53 19.6 252.14 19.55C251.76 19.5 251.38 19.43 251 19.33C250.63 19.23 250.26 19.11 249.9 18.96C249.55 18.82 249.2 18.65 248.86 18.46L248.86 15.73C249.03 15.85 249.21 15.97 249.39 16.08C249.57 16.19 249.75 16.3 249.93 16.4C250.12 16.5 250.3 16.6 250.49 16.69C250.68 16.78 250.88 16.87 251.07 16.95C251.23 17.01 251.39 17.07 251.55 17.12C251.72 17.17 251.88 17.21 252.05 17.24C252.22 17.27 252.39 17.3 252.56 17.31C252.73 17.33 252.9 17.34 253.07 17.34C254.28 17.34 254.89 16.95 254.89 16.19C254.89 16.12 254.88 16.05 254.86 15.98C254.84 15.91 254.82 15.84 254.79 15.78C254.76 15.72 254.72 15.66 254.68 15.6C254.63 15.55 254.58 15.5 254.53 15.45C254.4 15.36 254.26 15.27 254.12 15.19C253.98 15.1 253.83 15.03 253.68 14.95C253.54 14.88 253.39 14.82 253.23 14.76C253.08 14.7 252.93 14.65 252.77 14.6C252.58 14.54 252.39 14.47 252.21 14.4C252.02 14.33 251.83 14.25 251.65 14.18C251.47 14.1 251.28 14.02 251.1 13.94C250.92 13.85 250.74 13.77 250.56 13.68C250.43 13.6 250.3 13.52 250.17 13.43C250.04 13.34 249.92 13.25 249.81 13.15C249.69 13.04 249.58 12.93 249.48 12.82C249.38 12.71 249.28 12.59 249.19 12.46C249.09 12.31 249 12.16 248.92 12C248.85 11.84 248.78 11.68 248.73 11.51C248.68 11.34 248.65 11.16 248.62 10.99C248.6 10.81 248.59 10.64 248.6 10.46C248.59 10.2 248.62 9.95 248.68 9.7C248.73 9.45 248.82 9.2 248.94 8.98C249.05 8.75 249.2 8.53 249.37 8.34C249.54 8.15 249.73 7.98 249.94 7.83C250.19 7.66 250.46 7.5 250.73 7.37C251.01 7.24 251.29 7.13 251.59 7.04C251.88 6.96 252.18 6.9 252.48 6.86C252.79 6.83 253.09 6.82 253.4 6.83C253.76 6.84 254.12 6.87 254.47 6.92C254.83 6.96 255.18 7.03 255.53 7.11C255.88 7.19 256.22 7.29 256.56 7.41C256.9 7.52 257.23 7.66 257.56 7.81L257.56 7.81Z" />
	<path id="Layer" class="shp5" d="M263.34 7.01L263.34 19.46L260.24 19.46L260.24 7.01L263.34 7.01Z" />
	<path id="Layer" class="shp5" d="M278.82 7.01L278.82 19.46L276.2 19.46L269.33 11.46L269.33 19.46L266.23 19.46L266.23 7.01L269.07 7.01L275.72 14.62L275.72 7.01L278.82 7.01Z" />
	<path id="Layer" class="shp5" d="M290.83 17.18L290.83 19.46L281.65 19.46L281.65 7.01L290.71 7.01L290.71 9.29L284.76 9.29L284.76 11.9L290.43 11.9L290.43 14.18L284.76 14.18L284.76 17.18L290.83 17.18Z" />
	<path id="Layer" class="shp5" d="M301.65 7.81L301.65 10.24C301.34 10.08 301.03 9.94 300.71 9.82C300.39 9.69 300.06 9.58 299.73 9.49C299.4 9.4 299.06 9.32 298.72 9.26C298.38 9.2 298.04 9.16 297.7 9.13C297.59 9.12 297.47 9.13 297.36 9.13C297.24 9.14 297.13 9.16 297.02 9.18C296.9 9.21 296.79 9.24 296.69 9.28C296.58 9.31 296.47 9.36 296.37 9.41C296.3 9.44 296.23 9.48 296.17 9.54C296.11 9.59 296.06 9.64 296.02 9.71C295.98 9.78 295.94 9.85 295.92 9.92C295.9 9.99 295.88 10.07 295.88 10.15C295.88 10.22 295.89 10.28 295.91 10.34C295.93 10.41 295.95 10.47 295.98 10.53C296.01 10.59 296.05 10.64 296.09 10.69C296.13 10.74 296.18 10.79 296.23 10.83C296.36 10.92 296.5 11.01 296.63 11.09C296.77 11.17 296.91 11.24 297.05 11.31C297.2 11.38 297.34 11.44 297.49 11.5C297.64 11.56 297.79 11.61 297.94 11.66C298.13 11.73 298.32 11.8 298.51 11.88C298.69 11.96 298.88 12.04 299.06 12.12C299.25 12.2 299.43 12.29 299.61 12.38C299.79 12.47 299.97 12.56 300.15 12.66C300.29 12.73 300.42 12.82 300.56 12.91C300.69 12.99 300.81 13.09 300.93 13.19C301.05 13.29 301.17 13.4 301.27 13.52C301.38 13.63 301.48 13.75 301.58 13.88C301.68 14.02 301.77 14.18 301.85 14.34C301.93 14.5 301.99 14.66 302.05 14.83C302.1 15 302.13 15.17 302.16 15.35C302.18 15.53 302.19 15.7 302.18 15.88C302.19 16.14 302.17 16.4 302.12 16.65C302.07 16.9 301.99 17.15 301.88 17.38C301.77 17.62 301.64 17.84 301.48 18.04C301.32 18.24 301.14 18.43 300.94 18.59C300.69 18.77 300.43 18.92 300.15 19.06C299.87 19.19 299.59 19.3 299.29 19.39C299 19.47 298.69 19.53 298.39 19.56C298.08 19.6 297.78 19.61 297.47 19.59C297.08 19.6 296.68 19.58 296.29 19.53C295.9 19.49 295.51 19.42 295.13 19.32C294.75 19.23 294.37 19.11 294.01 18.96C293.64 18.82 293.28 18.65 292.94 18.46L292.94 15.73C293.11 15.85 293.29 15.97 293.47 16.08C293.65 16.19 293.83 16.3 294.01 16.4C294.2 16.5 294.38 16.6 294.57 16.69C294.76 16.78 294.96 16.87 295.15 16.95C295.31 17.01 295.47 17.07 295.63 17.12C295.8 17.17 295.96 17.21 296.13 17.24C296.3 17.27 296.47 17.3 296.64 17.31C296.81 17.33 296.98 17.34 297.15 17.34C298.37 17.34 298.98 16.95 298.98 16.19C298.98 16.12 298.97 16.05 298.95 15.98C298.93 15.91 298.91 15.84 298.88 15.78C298.85 15.72 298.81 15.66 298.77 15.6C298.72 15.55 298.67 15.5 298.62 15.45C298.49 15.36 298.36 15.27 298.23 15.19C298.09 15.11 297.95 15.03 297.81 14.96C297.67 14.89 297.53 14.82 297.38 14.76C297.24 14.7 297.09 14.65 296.94 14.6C296.75 14.54 296.56 14.47 296.38 14.4C296.19 14.33 296 14.25 295.82 14.18C295.64 14.1 295.45 14.02 295.27 13.94C295.09 13.85 294.91 13.77 294.73 13.68C294.59 13.61 294.45 13.53 294.32 13.44C294.18 13.35 294.06 13.26 293.93 13.15C293.81 13.05 293.7 12.94 293.59 12.83C293.48 12.71 293.38 12.59 293.28 12.46C293.18 12.32 293.09 12.16 293.01 12C292.93 11.84 292.87 11.68 292.82 11.51C292.77 11.34 292.73 11.17 292.71 10.99C292.69 10.81 292.68 10.64 292.69 10.46C292.68 10.21 292.7 9.95 292.75 9.71C292.8 9.46 292.88 9.22 292.99 8.99C293.1 8.76 293.23 8.55 293.39 8.35C293.55 8.16 293.74 7.98 293.94 7.83C294.19 7.66 294.45 7.5 294.73 7.37C295 7.24 295.29 7.13 295.58 7.04C295.88 6.96 296.17 6.9 296.48 6.86C296.78 6.83 297.09 6.82 297.39 6.83C297.76 6.84 298.12 6.86 298.49 6.91C298.85 6.95 299.21 7.02 299.57 7.1C299.93 7.18 300.28 7.28 300.63 7.4C300.98 7.52 301.32 7.66 301.65 7.81L301.65 7.81Z" />
	<path id="Layer" class="shp5" d="M312.67 7.81L312.67 10.24C312.36 10.08 312.04 9.94 311.72 9.81C311.39 9.69 311.06 9.58 310.73 9.48C310.39 9.39 310.05 9.31 309.71 9.26C309.36 9.2 309.02 9.15 308.67 9.13C308.56 9.12 308.44 9.13 308.33 9.14C308.21 9.14 308.1 9.16 307.99 9.18C307.87 9.21 307.76 9.24 307.66 9.28C307.55 9.31 307.44 9.36 307.34 9.41C307.27 9.44 307.2 9.48 307.14 9.54C307.08 9.59 307.03 9.64 306.99 9.71C306.95 9.78 306.91 9.85 306.89 9.92C306.87 9.99 306.85 10.07 306.85 10.15C306.85 10.22 306.86 10.28 306.88 10.34C306.9 10.41 306.92 10.47 306.95 10.53C306.98 10.59 307.02 10.64 307.06 10.69C307.1 10.74 307.15 10.79 307.2 10.83C307.33 10.92 307.47 11.01 307.61 11.09C307.75 11.17 307.89 11.24 308.04 11.31C308.18 11.38 308.33 11.45 308.48 11.5C308.63 11.56 308.79 11.61 308.94 11.66C309.13 11.73 309.32 11.8 309.51 11.88C309.69 11.96 309.88 12.04 310.06 12.12C310.25 12.2 310.43 12.29 310.61 12.38C310.79 12.47 310.97 12.56 311.15 12.66C311.29 12.73 311.42 12.82 311.56 12.91C311.69 12.99 311.81 13.09 311.93 13.19C312.05 13.29 312.17 13.4 312.27 13.52C312.38 13.63 312.48 13.75 312.58 13.88C312.68 14.02 312.77 14.18 312.85 14.34C312.93 14.5 312.99 14.66 313.05 14.83C313.1 15 313.13 15.17 313.16 15.35C313.18 15.53 313.19 15.7 313.18 15.88C313.19 16.14 313.17 16.4 313.12 16.65C313.07 16.9 312.99 17.15 312.88 17.38C312.77 17.62 312.64 17.84 312.48 18.04C312.32 18.24 312.14 18.43 311.94 18.59C311.69 18.77 311.43 18.92 311.15 19.06C310.88 19.19 310.59 19.3 310.3 19.38C310 19.47 309.7 19.53 309.4 19.56C309.09 19.6 308.79 19.61 308.48 19.59C308.09 19.6 307.69 19.58 307.3 19.53C306.91 19.49 306.52 19.42 306.14 19.32C305.75 19.23 305.38 19.11 305.01 18.96C304.64 18.82 304.29 18.65 303.94 18.46L303.94 15.73C304.11 15.85 304.29 15.97 304.47 16.08C304.65 16.19 304.83 16.3 305.01 16.4C305.2 16.5 305.38 16.6 305.57 16.69C305.76 16.78 305.96 16.87 306.15 16.95C306.31 17.01 306.47 17.07 306.63 17.12C306.8 17.17 306.96 17.21 307.13 17.24C307.3 17.27 307.47 17.3 307.64 17.31C307.81 17.33 307.98 17.34 308.15 17.34C309.36 17.34 309.97 16.95 309.97 16.19C309.97 16.12 309.96 16.05 309.94 15.98C309.92 15.91 309.9 15.84 309.87 15.78C309.84 15.72 309.8 15.66 309.76 15.6C309.71 15.55 309.66 15.5 309.61 15.45C309.48 15.36 309.35 15.27 309.22 15.19C309.08 15.11 308.95 15.03 308.81 14.96C308.67 14.89 308.53 14.82 308.38 14.76C308.24 14.7 308.09 14.65 307.94 14.6C307.75 14.54 307.56 14.47 307.38 14.4C307.19 14.33 307 14.25 306.82 14.18C306.64 14.1 306.45 14.02 306.27 13.94C306.09 13.85 305.91 13.77 305.73 13.68C305.59 13.61 305.45 13.53 305.32 13.44C305.19 13.35 305.06 13.26 304.94 13.15C304.82 13.05 304.71 12.94 304.6 12.82C304.49 12.71 304.39 12.59 304.3 12.46C304.2 12.32 304.11 12.16 304.03 12C303.95 11.84 303.89 11.68 303.84 11.51C303.79 11.34 303.75 11.17 303.73 10.99C303.71 10.81 303.7 10.64 303.71 10.46C303.7 10.21 303.73 9.96 303.78 9.71C303.84 9.47 303.92 9.23 304.04 9.01C304.15 8.78 304.29 8.57 304.45 8.38C304.61 8.19 304.8 8.02 305 7.87C305.25 7.7 305.52 7.54 305.79 7.41C306.07 7.28 306.35 7.17 306.65 7.08C306.94 7 307.24 6.94 307.54 6.9C307.85 6.87 308.15 6.86 308.46 6.87C308.82 6.88 309.18 6.9 309.54 6.94C309.9 6.98 310.26 7.04 310.61 7.12C310.97 7.2 311.32 7.3 311.66 7.41C312 7.53 312.34 7.66 312.67 7.81L312.67 7.81Z" />
	<path id="Layer" class="shp6" d="M139.68 24.47L312.87 24.47L312.87 41.4L139.68 41.4L139.68 24.47Z" />
	<path id="Layer" class="shp7" d="M152.41 35.88L152.41 37.39C152.14 37.53 151.87 37.66 151.58 37.76C151.3 37.87 151.01 37.96 150.72 38.03C150.42 38.1 150.13 38.15 149.82 38.18C149.52 38.21 149.22 38.23 148.92 38.22C148.68 38.23 148.45 38.22 148.21 38.19C147.98 38.17 147.74 38.13 147.51 38.08C147.28 38.02 147.06 37.95 146.83 37.87C146.61 37.78 146.4 37.68 146.19 37.57C146.01 37.46 145.83 37.35 145.66 37.22C145.49 37.09 145.34 36.95 145.19 36.8C145.04 36.65 144.9 36.49 144.77 36.32C144.64 36.15 144.52 35.97 144.42 35.79C144.31 35.6 144.22 35.41 144.14 35.21C144.06 35.02 143.99 34.81 143.93 34.61C143.88 34.4 143.84 34.19 143.81 33.98C143.78 33.77 143.77 33.55 143.77 33.34C143.76 33.01 143.79 32.68 143.85 32.36C143.92 32.04 144.01 31.72 144.14 31.42C144.27 31.11 144.43 30.82 144.62 30.55C144.8 30.28 145.02 30.04 145.26 29.81C145.5 29.58 145.77 29.37 146.06 29.19C146.34 29 146.64 28.85 146.96 28.73C147.27 28.61 147.6 28.52 147.93 28.46C148.26 28.4 148.6 28.37 148.94 28.38C149.23 28.39 149.52 28.41 149.81 28.45C150.09 28.49 150.38 28.54 150.66 28.61C150.94 28.67 151.22 28.75 151.49 28.85C151.77 28.94 152.04 29.05 152.3 29.17L152.3 30.65C152.05 30.5 151.8 30.36 151.53 30.24C151.27 30.12 151 30.02 150.72 29.93C150.44 29.85 150.16 29.78 149.87 29.74C149.59 29.69 149.3 29.66 149.01 29.65C148.76 29.64 148.51 29.65 148.26 29.69C148.02 29.73 147.78 29.79 147.54 29.88C147.31 29.96 147.08 30.07 146.87 30.2C146.65 30.33 146.45 30.48 146.27 30.65C145.93 30.99 145.66 31.4 145.47 31.84C145.28 32.29 145.19 32.77 145.19 33.25C145.19 33.74 145.28 34.22 145.47 34.67C145.66 35.11 145.93 35.52 146.27 35.86C146.45 36.03 146.66 36.18 146.87 36.31C147.08 36.44 147.31 36.54 147.54 36.63C147.78 36.71 148.02 36.78 148.26 36.82C148.51 36.85 148.76 36.87 149.01 36.86C149.31 36.86 149.61 36.84 149.9 36.8C150.2 36.76 150.49 36.7 150.78 36.62C151.07 36.53 151.35 36.43 151.62 36.31C151.89 36.18 152.16 36.04 152.41 35.88L152.41 35.88Z" />
	<path id="Layer" fill-rule="evenodd" class="shp7" d="M166.58 28.44C166.92 28.5 167.24 28.59 167.56 28.71C167.88 28.83 168.18 28.98 168.47 29.16C168.76 29.34 169.02 29.55 169.27 29.78C169.51 30 169.73 30.25 169.91 30.52C170.1 30.79 170.26 31.08 170.39 31.39C170.52 31.69 170.61 32.01 170.67 32.33C170.73 32.65 170.76 32.98 170.75 33.31C170.76 33.64 170.73 33.97 170.67 34.29C170.61 34.61 170.51 34.93 170.39 35.23C170.26 35.53 170.1 35.82 169.91 36.08C169.72 36.35 169.5 36.6 169.26 36.82C169.01 37.05 168.73 37.26 168.44 37.44C168.15 37.62 167.84 37.77 167.51 37.89C167.19 38.01 166.86 38.1 166.52 38.15C166.18 38.21 165.83 38.23 165.49 38.22C165.16 38.23 164.83 38.21 164.5 38.15C164.17 38.09 163.85 38 163.54 37.88C163.23 37.76 162.94 37.61 162.66 37.43C162.38 37.26 162.12 37.05 161.88 36.82C161.64 36.6 161.43 36.35 161.25 36.09C161.06 35.82 160.91 35.53 160.78 35.24C160.66 34.94 160.56 34.63 160.5 34.31C160.45 33.99 160.42 33.66 160.43 33.34C160.42 33.01 160.45 32.68 160.51 32.35C160.58 32.02 160.67 31.7 160.8 31.4C160.93 31.09 161.09 30.8 161.29 30.53C161.48 30.26 161.7 30.01 161.94 29.78C162.18 29.55 162.44 29.34 162.72 29.16C163.01 28.98 163.3 28.83 163.61 28.71C163.92 28.59 164.25 28.5 164.58 28.44C164.9 28.39 165.24 28.36 165.57 28.37C165.91 28.36 166.25 28.38 166.58 28.44ZM164.88 29.72C164.64 29.76 164.4 29.82 164.16 29.91C163.93 29.99 163.71 30.1 163.5 30.23C163.29 30.36 163.09 30.51 162.91 30.68C162.74 30.85 162.58 31.04 162.44 31.24C162.31 31.44 162.19 31.66 162.1 31.88C162.01 32.11 161.95 32.34 161.9 32.58C161.86 32.82 161.84 33.07 161.85 33.31C161.84 33.55 161.86 33.8 161.91 34.03C161.95 34.27 162.02 34.51 162.12 34.73C162.21 34.96 162.33 35.17 162.47 35.37C162.6 35.57 162.76 35.75 162.94 35.92C163.12 36.09 163.31 36.24 163.52 36.37C163.72 36.5 163.94 36.6 164.17 36.69C164.4 36.78 164.63 36.84 164.87 36.88C165.11 36.92 165.36 36.93 165.6 36.92C165.84 36.93 166.09 36.92 166.33 36.88C166.57 36.84 166.81 36.78 167.04 36.69C167.27 36.6 167.49 36.5 167.7 36.37C167.91 36.24 168.1 36.09 168.28 35.92C168.46 35.75 168.61 35.57 168.75 35.36C168.89 35.16 169 34.95 169.09 34.72C169.18 34.5 169.25 34.26 169.3 34.03C169.34 33.79 169.36 33.54 169.35 33.3C169.36 33.06 169.34 32.82 169.29 32.59C169.25 32.36 169.18 32.13 169.09 31.91C169 31.69 168.88 31.48 168.74 31.28C168.61 31.08 168.45 30.9 168.28 30.74C168.11 30.57 167.92 30.41 167.71 30.28C167.5 30.14 167.29 30.03 167.06 29.94C166.83 29.85 166.59 29.78 166.35 29.74C166.11 29.69 165.87 29.67 165.62 29.68C165.37 29.67 165.13 29.68 164.88 29.72Z" />
	<path id="Layer" class="shp7" d="M186.82 28.51L188.13 28.51L188.13 38.11L186.94 38.11L180.53 30.71L180.53 38.11L179.24 38.11L179.24 28.51L180.35 28.51L186.82 35.96L186.82 28.51Z" />
	<path id="Layer" class="shp7" d="M199.31 34.08L198.31 33.45C198.18 33.38 198.04 33.3 197.92 33.21C197.79 33.12 197.67 33.03 197.55 32.93C197.43 32.83 197.32 32.73 197.21 32.62C197.11 32.51 197.01 32.39 196.91 32.27C196.84 32.17 196.78 32.07 196.73 31.96C196.67 31.86 196.63 31.75 196.59 31.63C196.56 31.52 196.53 31.4 196.51 31.29C196.5 31.17 196.49 31.05 196.49 30.93C196.49 30.76 196.5 30.59 196.53 30.42C196.56 30.25 196.61 30.08 196.68 29.92C196.75 29.76 196.84 29.61 196.94 29.47C197.04 29.33 197.15 29.21 197.28 29.09C197.42 28.97 197.57 28.87 197.72 28.78C197.88 28.69 198.04 28.61 198.22 28.55C198.39 28.49 198.56 28.45 198.74 28.42C198.92 28.39 199.1 28.38 199.28 28.38C199.47 28.38 199.67 28.39 199.86 28.42C200.06 28.45 200.25 28.49 200.43 28.55C200.62 28.61 200.8 28.68 200.98 28.77C201.15 28.85 201.32 28.95 201.48 29.06L201.48 30.62C201.34 30.47 201.18 30.33 201.01 30.21C200.84 30.09 200.66 29.98 200.47 29.9C200.27 29.81 200.08 29.74 199.87 29.7C199.67 29.65 199.46 29.63 199.25 29.62C199.15 29.62 199.05 29.62 198.96 29.63C198.86 29.64 198.76 29.66 198.67 29.69C198.58 29.71 198.48 29.75 198.4 29.79C198.31 29.83 198.22 29.88 198.14 29.93C198.08 29.97 198.02 30.03 197.96 30.09C197.91 30.14 197.87 30.21 197.83 30.28C197.79 30.35 197.76 30.42 197.74 30.5C197.72 30.57 197.71 30.65 197.71 30.73C197.71 30.8 197.72 30.88 197.73 30.95C197.75 31.02 197.77 31.1 197.79 31.17C197.82 31.23 197.85 31.3 197.89 31.36C197.93 31.43 197.98 31.49 198.03 31.54C198.1 31.62 198.18 31.69 198.26 31.77C198.33 31.84 198.42 31.91 198.5 31.97C198.58 32.04 198.67 32.1 198.76 32.16C198.85 32.22 198.94 32.28 199.03 32.33L200.03 32.95C200.28 33.07 200.52 33.22 200.73 33.41C200.94 33.59 201.13 33.8 201.28 34.04C201.44 34.27 201.56 34.53 201.65 34.79C201.73 35.06 201.78 35.34 201.79 35.62C201.8 35.79 201.78 35.97 201.75 36.14C201.72 36.31 201.67 36.48 201.61 36.64C201.54 36.8 201.46 36.95 201.36 37.1C201.26 37.24 201.15 37.37 201.02 37.49C200.89 37.61 200.74 37.72 200.58 37.82C200.43 37.91 200.26 37.99 200.09 38.05C199.92 38.11 199.74 38.16 199.56 38.19C199.38 38.22 199.2 38.23 199.02 38.22C198.79 38.22 198.56 38.2 198.33 38.16C198.1 38.13 197.87 38.07 197.65 38C197.43 37.92 197.22 37.83 197.01 37.72C196.81 37.61 196.61 37.48 196.43 37.34L196.43 35.6C196.57 35.81 196.74 36 196.93 36.17C197.12 36.34 197.32 36.49 197.55 36.61C197.77 36.74 198 36.83 198.25 36.9C198.49 36.96 198.75 37 199 37.01C199.1 37.01 199.19 37.01 199.29 36.99C199.39 36.98 199.48 36.96 199.57 36.93C199.66 36.9 199.75 36.86 199.84 36.81C199.92 36.76 200 36.71 200.08 36.65C200.15 36.6 200.21 36.53 200.26 36.47C200.31 36.4 200.36 36.33 200.4 36.25C200.43 36.17 200.46 36.09 200.48 36.01C200.5 35.92 200.51 35.84 200.51 35.75C200.58 35.16 200.16 34.61 199.31 34.08Z" />
	<path id="Layer" class="shp7" d="M216.81 28.51L218.19 28.51L218.19 33.96C218.19 34.1 218.2 34.24 218.19 34.38C218.19 34.52 218.18 34.66 218.16 34.8C218.15 34.94 218.13 35.08 218.11 35.22C218.09 35.36 218.06 35.49 218.03 35.63C218.01 35.71 217.98 35.79 217.95 35.87C217.93 35.95 217.9 36.03 217.86 36.11C217.83 36.19 217.79 36.26 217.75 36.34C217.72 36.41 217.67 36.49 217.63 36.56C217.59 36.62 217.55 36.68 217.51 36.74C217.46 36.8 217.41 36.86 217.37 36.92C217.32 36.97 217.27 37.03 217.21 37.08C217.16 37.13 217.11 37.18 217.05 37.23C216.84 37.4 216.62 37.55 216.38 37.69C216.15 37.82 215.9 37.92 215.64 38.01C215.39 38.1 215.12 38.16 214.86 38.19C214.59 38.23 214.32 38.24 214.05 38.23C213.78 38.24 213.51 38.23 213.24 38.19C212.98 38.15 212.71 38.09 212.46 38C212.2 37.92 211.96 37.81 211.72 37.68C211.48 37.55 211.26 37.4 211.05 37.23C210.99 37.18 210.94 37.13 210.89 37.08C210.83 37.02 210.78 36.97 210.74 36.91C210.69 36.85 210.64 36.8 210.6 36.74C210.55 36.68 210.51 36.61 210.47 36.55C210.43 36.48 210.39 36.41 210.35 36.33C210.31 36.26 210.27 36.19 210.24 36.11C210.21 36.03 210.18 35.96 210.15 35.88C210.12 35.8 210.1 35.72 210.08 35.64C210.05 35.5 210.02 35.36 210 35.22C209.98 35.08 209.96 34.93 209.95 34.79C209.93 34.65 209.93 34.5 209.92 34.36C209.92 34.22 209.92 34.07 209.92 33.93L209.92 28.51L211.31 28.51L211.31 33.96C211.3 34.12 211.3 34.28 211.3 34.44C211.31 34.6 211.33 34.76 211.35 34.92C211.38 35.08 211.41 35.23 211.45 35.39C211.5 35.54 211.55 35.69 211.61 35.84C211.67 35.93 211.73 36.02 211.8 36.1C211.87 36.18 211.94 36.26 212.02 36.33C212.1 36.4 212.19 36.47 212.28 36.53C212.37 36.59 212.46 36.64 212.56 36.69C212.68 36.75 212.79 36.79 212.92 36.84C213.04 36.88 213.16 36.91 213.29 36.94C213.41 36.96 213.54 36.98 213.67 37C213.79 37.01 213.92 37.01 214.05 37.01C214.23 37.02 214.41 37.01 214.59 36.99C214.76 36.96 214.94 36.93 215.11 36.87C215.28 36.82 215.44 36.75 215.6 36.66C215.76 36.58 215.91 36.48 216.05 36.37C216.11 36.32 216.18 36.26 216.23 36.2C216.29 36.14 216.34 36.07 216.39 36C216.44 35.93 216.48 35.86 216.52 35.79C216.56 35.71 216.6 35.64 216.63 35.56C216.67 35.43 216.7 35.3 216.72 35.17C216.75 35.03 216.77 34.9 216.78 34.77C216.8 34.63 216.81 34.5 216.81 34.36C216.82 34.23 216.82 34.09 216.81 33.96L216.81 28.51Z" />
	<path id="Layer" class="shp7" d="M226.85 28.51L228.23 28.51L228.23 36.86L232.55 36.86L232.55 38.11L226.85 38.11L226.85 28.51Z" />
	<path id="Layer" class="shp7" d="M238.28 28.46L246.28 28.46L246.28 29.69L242.94 29.69L242.94 38.08L241.56 38.08L241.56 29.72L238.27 29.72L238.28 28.46Z" />
	<path id="Layer" fill-rule="evenodd" class="shp7" d="M256.01 28.46L257.01 28.46L261.31 38.12L259.91 38.12L258.63 35.27L254.53 35.27L253.33 38.12L251.92 38.12L256.01 28.46ZM258.01 34.05L256.46 30.57L255.03 34.05L258.01 34.05Z" />
	<path id="Layer" class="shp7" d="M276.71 28.51L278.01 28.51L278.01 38.11L276.83 38.11L270.41 30.71L270.41 38.11L269.12 38.11L269.12 28.51L270.23 28.51L276.71 35.96L276.71 28.51Z" />
	<path id="Layer" class="shp7" d="M286 28.46L294 28.46L294 29.69L290.66 29.69L290.66 38.08L289.27 38.08L289.27 29.72L285.98 29.72L286 28.46Z" />
	<path id="Layer" class="shp7" d="M304.45 34.08L303.45 33.45C303.32 33.38 303.18 33.3 303.06 33.21C302.93 33.12 302.81 33.03 302.69 32.93C302.57 32.83 302.46 32.73 302.35 32.62C302.25 32.51 302.15 32.39 302.05 32.27C301.98 32.17 301.92 32.07 301.87 31.96C301.81 31.86 301.77 31.75 301.73 31.63C301.7 31.52 301.67 31.4 301.65 31.29C301.64 31.17 301.63 31.05 301.63 30.93C301.62 30.76 301.64 30.58 301.67 30.42C301.7 30.25 301.75 30.08 301.82 29.92C301.89 29.76 301.97 29.61 302.07 29.47C302.17 29.33 302.29 29.2 302.42 29.09C302.56 28.97 302.71 28.87 302.86 28.78C303.02 28.69 303.18 28.61 303.36 28.55C303.53 28.49 303.7 28.45 303.88 28.42C304.06 28.39 304.24 28.38 304.42 28.38C304.62 28.38 304.81 28.39 305 28.42C305.2 28.45 305.39 28.49 305.58 28.55C305.76 28.61 305.95 28.68 306.12 28.77C306.3 28.85 306.47 28.95 306.63 29.06L306.63 30.62C306.49 30.47 306.33 30.33 306.16 30.21C305.99 30.09 305.81 29.98 305.62 29.9C305.42 29.81 305.23 29.74 305.02 29.7C304.82 29.65 304.61 29.63 304.4 29.62C304.3 29.62 304.2 29.62 304.11 29.63C304.01 29.64 303.91 29.66 303.82 29.69C303.73 29.71 303.63 29.75 303.55 29.79C303.46 29.83 303.37 29.88 303.29 29.93C303.23 29.97 303.17 30.03 303.11 30.09C303.06 30.14 303.02 30.21 302.98 30.28C302.94 30.35 302.91 30.42 302.89 30.5C302.87 30.57 302.86 30.65 302.86 30.73C302.86 30.8 302.87 30.88 302.88 30.95C302.9 31.02 302.92 31.1 302.94 31.17C302.97 31.23 303 31.3 303.04 31.36C303.08 31.43 303.13 31.49 303.18 31.54C303.25 31.62 303.33 31.69 303.41 31.77C303.48 31.84 303.57 31.91 303.65 31.97C303.73 32.04 303.82 32.1 303.91 32.16C304 32.22 304.09 32.28 304.18 32.33L305.23 32.95C305.48 33.07 305.72 33.22 305.93 33.41C306.14 33.59 306.33 33.8 306.48 34.04C306.64 34.27 306.76 34.53 306.85 34.79C306.93 35.06 306.98 35.34 306.99 35.62C307 35.79 306.98 35.97 306.95 36.14C306.92 36.31 306.87 36.48 306.81 36.64C306.74 36.8 306.65 36.95 306.55 37.1C306.45 37.24 306.34 37.37 306.21 37.49C306.08 37.61 305.93 37.72 305.77 37.82C305.62 37.91 305.45 37.99 305.28 38.05C305.11 38.12 304.93 38.16 304.75 38.19C304.57 38.22 304.39 38.23 304.21 38.22C303.98 38.22 303.75 38.2 303.52 38.16C303.29 38.12 303.06 38.07 302.84 37.99C302.62 37.92 302.41 37.83 302.2 37.72C302 37.61 301.8 37.48 301.62 37.34L301.62 35.6C301.76 35.81 301.93 36 302.12 36.17C302.31 36.34 302.52 36.49 302.74 36.61C302.97 36.73 303.2 36.83 303.45 36.9C303.69 36.96 303.95 37 304.2 37.01C304.3 37.01 304.39 37.01 304.49 36.99C304.59 36.98 304.68 36.96 304.77 36.93C304.86 36.9 304.95 36.86 305.04 36.81C305.12 36.76 305.2 36.71 305.28 36.65C305.35 36.6 305.41 36.53 305.46 36.47C305.51 36.4 305.56 36.33 305.6 36.25C305.63 36.17 305.66 36.09 305.68 36.01C305.7 35.92 305.71 35.84 305.71 35.75C305.72 35.16 305.29 34.61 304.45 34.08Z" />
	<path id="Layer" class="shp8" d="M139.94 49.34L143.24 49.34L143.24 50.13L140.74 50.13L140.74 51.56L143.24 51.56L143.24 52.34L140.74 52.34L140.74 54.34L143.24 54.34L143.24 55.12L139.94 55.12L139.94 49.34Z" />
	<path id="Layer" class="shp8" d="M144.94 49.34L145.84 49.34L147.14 51.46L148.45 49.36L149.36 49.36L147.59 52.18L149.41 55.12L148.51 55.12L147.14 52.9L145.75 55.12L144.85 55.12L146.69 52.18L144.94 49.34Z" />
	<path id="Layer" fill-rule="evenodd" class="shp8" d="M151.57 49.34L152.76 49.34C152.9 49.33 153.05 49.34 153.19 49.35C153.34 49.37 153.48 49.4 153.62 49.44C153.76 49.48 153.89 49.53 154.02 49.59C154.15 49.65 154.28 49.72 154.4 49.8C154.5 49.87 154.58 49.95 154.66 50.03C154.74 50.12 154.81 50.22 154.86 50.32C154.91 50.43 154.95 50.54 154.98 50.65C155.01 50.77 155.02 50.88 155.02 51C155.02 51.12 155 51.24 154.98 51.36C154.95 51.48 154.9 51.59 154.84 51.7C154.79 51.81 154.72 51.91 154.63 52C154.55 52.09 154.46 52.17 154.36 52.24C154.21 52.33 154.06 52.42 153.9 52.48C153.74 52.55 153.57 52.61 153.4 52.65C153.23 52.69 153.06 52.72 152.88 52.73C152.71 52.75 152.53 52.75 152.36 52.73L152.36 55.1L151.56 55.1L151.57 49.34ZM152.37 52.03C152.49 52.04 152.6 52.04 152.72 52.03C152.83 52.02 152.95 52.01 153.06 51.98C153.18 51.96 153.29 51.94 153.4 51.9C153.51 51.87 153.62 51.83 153.73 51.78C153.8 51.74 153.86 51.7 153.92 51.64C153.98 51.59 154.02 51.53 154.06 51.46C154.1 51.39 154.13 51.32 154.15 51.24C154.17 51.17 154.17 51.09 154.17 51.01C154.17 50.94 154.16 50.88 154.15 50.81C154.13 50.75 154.11 50.68 154.08 50.62C154.05 50.56 154.02 50.51 153.98 50.45C153.94 50.4 153.89 50.35 153.84 50.31C153.73 50.25 153.61 50.2 153.49 50.15C153.37 50.11 153.25 50.08 153.13 50.05C153 50.03 152.88 50.02 152.75 50.01C152.62 50.01 152.5 50.01 152.37 50.03L152.37 52.03Z" />
	<path id="Layer" class="shp8" d="M157.05 49.34L160.35 49.34L160.35 50.13L157.85 50.13L157.85 51.56L160.35 51.56L160.35 52.34L157.85 52.34L157.85 54.34L160.35 54.34L160.35 55.12L157.05 55.12L157.05 49.34Z" />
	<path id="Layer" fill-rule="evenodd" class="shp8" d="M162.39 49.34L163.68 49.34C163.82 49.33 163.96 49.34 164.1 49.36C164.23 49.37 164.37 49.4 164.5 49.44C164.64 49.48 164.77 49.53 164.89 49.59C165.02 49.65 165.14 49.72 165.25 49.8C165.34 49.87 165.43 49.95 165.5 50.03C165.58 50.12 165.64 50.22 165.69 50.32C165.75 50.43 165.79 50.53 165.81 50.65C165.84 50.76 165.85 50.87 165.85 50.99C165.85 51.08 165.84 51.17 165.82 51.26C165.8 51.35 165.78 51.44 165.75 51.53C165.71 51.61 165.67 51.69 165.62 51.77C165.58 51.85 165.52 51.92 165.46 51.99C165.38 52.07 165.29 52.15 165.2 52.21C165.1 52.28 165 52.34 164.9 52.4C164.8 52.45 164.69 52.49 164.58 52.53C164.47 52.56 164.35 52.59 164.24 52.61L165.94 55.1L165.01 55.1L163.35 52.73L163.17 52.73L163.17 55.1L162.36 55.1L162.39 49.34ZM163.2 52.03C164.4 52.03 165 51.72 165 51.03C165 50.98 165 50.92 164.99 50.87C164.98 50.82 164.97 50.77 164.95 50.71C164.93 50.66 164.91 50.62 164.88 50.57C164.86 50.52 164.83 50.48 164.79 50.44C164.75 50.4 164.71 50.36 164.67 50.33C164.63 50.29 164.58 50.26 164.54 50.23C164.49 50.21 164.44 50.18 164.39 50.16C164.34 50.15 164.28 50.13 164.23 50.12C164.15 50.1 164.06 50.09 163.97 50.07C163.89 50.06 163.8 50.05 163.72 50.04C163.63 50.04 163.55 50.03 163.46 50.03C163.37 50.03 163.29 50.03 163.2 50.03L163.2 52.03Z" />
	<path id="Layer" class="shp8" d="M167.99 49.34L168.79 49.34L168.79 55.1L167.99 55.1L167.99 49.34Z" />
	<path id="Layer" class="shp8" d="M170.99 49.34L174.29 49.34L174.29 50.13L171.8 50.13L171.8 51.56L174.29 51.56L174.29 52.34L171.8 52.34L171.8 54.34L174.29 54.34L174.29 55.12L170.99 55.12L170.99 49.34Z" />
	<path id="Layer" class="shp8" d="M176.16 49.11L180.56 53.48L180.56 49.34L181.37 49.34L181.37 55.34L176.94 51.01L176.94 55.1L176.13 55.1L176.16 49.11Z" />
	<path id="Layer" class="shp8" d="M188.35 49.54L188.35 50.46C188.21 50.39 188.07 50.33 187.93 50.27C187.79 50.22 187.64 50.17 187.49 50.13C187.34 50.09 187.19 50.06 187.04 50.04C186.89 50.02 186.73 50 186.58 50C186.42 50 186.26 50.01 186.11 50.03C185.95 50.06 185.8 50.1 185.65 50.16C185.5 50.21 185.36 50.28 185.22 50.36C185.08 50.45 184.96 50.54 184.84 50.65C184.73 50.75 184.62 50.86 184.53 50.98C184.44 51.1 184.36 51.23 184.3 51.36C184.24 51.5 184.2 51.64 184.17 51.79C184.14 51.94 184.13 52.09 184.13 52.24C184.13 52.39 184.14 52.54 184.17 52.69C184.2 52.84 184.25 52.99 184.31 53.13C184.37 53.26 184.45 53.4 184.54 53.52C184.63 53.64 184.74 53.75 184.85 53.85C184.98 53.96 185.11 54.05 185.25 54.13C185.4 54.22 185.55 54.28 185.7 54.34C185.86 54.39 186.02 54.43 186.18 54.46C186.34 54.48 186.51 54.49 186.67 54.49C186.82 54.49 186.96 54.47 187.11 54.45C187.25 54.43 187.4 54.4 187.54 54.36C187.68 54.31 187.82 54.27 187.96 54.21C188.09 54.15 188.22 54.08 188.35 54.01L188.35 54.9C188.22 54.97 188.08 55.03 187.93 55.08C187.79 55.14 187.65 55.18 187.5 55.22C187.35 55.25 187.2 55.28 187.05 55.3C186.9 55.31 186.75 55.32 186.6 55.32C186.38 55.32 186.17 55.31 185.96 55.27C185.74 55.23 185.53 55.18 185.33 55.1C185.13 55.02 184.94 54.93 184.75 54.81C184.57 54.7 184.4 54.57 184.24 54.42C184.08 54.28 183.94 54.13 183.82 53.97C183.69 53.8 183.59 53.62 183.5 53.43C183.41 53.25 183.35 53.05 183.3 52.85C183.26 52.64 183.24 52.44 183.24 52.23C183.24 52.03 183.26 51.82 183.31 51.62C183.35 51.42 183.42 51.23 183.5 51.05C183.59 50.86 183.7 50.69 183.82 50.52C183.94 50.36 184.08 50.21 184.24 50.08C184.4 49.93 184.57 49.8 184.75 49.69C184.93 49.58 185.12 49.48 185.32 49.41C185.52 49.33 185.72 49.28 185.93 49.24C186.14 49.2 186.36 49.19 186.57 49.19C186.72 49.19 186.87 49.2 187.03 49.21C187.18 49.23 187.33 49.25 187.48 49.28C187.63 49.31 187.77 49.34 187.92 49.39C188.07 49.43 188.21 49.48 188.35 49.54L188.35 49.54Z" />
	<path id="Layer" class="shp8" d="M190.21 49.34L193.51 49.34L193.51 50.13L191.01 50.13L191.01 51.56L193.51 51.56L193.51 52.34L191.01 52.34L191.01 54.34L193.51 54.34L193.51 55.12L190.21 55.12L190.21 49.34Z" />
	<path id="Layer" class="shp8" d="M195.2 54.57C195.2 54.53 195.2 54.49 195.21 54.45C195.22 54.41 195.23 54.37 195.25 54.33C195.26 54.3 195.28 54.26 195.31 54.23C195.33 54.2 195.36 54.17 195.39 54.14C195.42 54.11 195.45 54.08 195.48 54.06C195.52 54.04 195.55 54.02 195.59 54C195.63 53.99 195.67 53.98 195.71 53.97C195.75 53.96 195.79 53.96 195.83 53.96C195.87 53.96 195.91 53.96 195.95 53.97C195.99 53.98 196.03 53.99 196.07 54C196.11 54.02 196.15 54.04 196.18 54.06C196.22 54.08 196.25 54.11 196.28 54.14C196.34 54.19 196.39 54.26 196.42 54.33C196.45 54.41 196.47 54.49 196.47 54.57C196.47 54.65 196.45 54.73 196.42 54.81C196.39 54.88 196.34 54.95 196.28 55C196.25 55.03 196.22 55.06 196.18 55.08C196.15 55.1 196.11 55.12 196.07 55.14C196.04 55.15 195.99 55.16 195.95 55.17C195.91 55.18 195.87 55.18 195.83 55.18C195.79 55.18 195.75 55.18 195.71 55.17C195.67 55.16 195.63 55.15 195.59 55.14C195.55 55.12 195.52 55.1 195.48 55.08C195.45 55.06 195.42 55.03 195.39 55C195.36 54.97 195.33 54.94 195.31 54.91C195.28 54.88 195.26 54.84 195.25 54.81C195.23 54.77 195.22 54.73 195.21 54.69C195.2 54.65 195.2 54.61 195.2 54.57Z" />
	<path id="Layer" class="shp8" d="M202.01 49.34L205.31 49.34L205.31 50.13L202.81 50.13L202.81 51.56L205.31 51.56L205.31 52.34L202.81 52.34L202.81 54.34L205.31 54.34L205.31 55.12L202.01 55.12L202.01 49.34Z" />
	<path id="Layer" class="shp8" d="M206.99 49.34L207.89 49.34L209.22 51.44L210.53 49.34L211.44 49.34L209.67 52.16L211.49 55.1L210.59 55.1L209.22 52.88L207.83 55.1L206.94 55.1L208.77 52.16L206.99 49.34Z" />
	<path id="Layer" fill-rule="evenodd" class="shp8" d="M213.65 49.34L214.84 49.34C214.98 49.33 215.13 49.34 215.27 49.35C215.42 49.37 215.56 49.4 215.7 49.44C215.84 49.48 215.97 49.53 216.1 49.59C216.23 49.65 216.36 49.72 216.48 49.8C216.58 49.87 216.66 49.95 216.74 50.03C216.82 50.12 216.89 50.22 216.94 50.32C216.99 50.43 217.03 50.54 217.06 50.65C217.09 50.77 217.1 50.88 217.1 51C217.1 51.12 217.08 51.24 217.06 51.36C217.03 51.48 216.98 51.59 216.92 51.7C216.87 51.81 216.8 51.91 216.71 52C216.63 52.09 216.54 52.17 216.44 52.24C216.29 52.33 216.14 52.42 215.98 52.48C215.82 52.55 215.65 52.61 215.48 52.65C215.31 52.69 215.14 52.72 214.96 52.73C214.79 52.75 214.61 52.75 214.44 52.73L214.44 55.1L213.64 55.1L213.65 49.34ZM214.45 52.03C214.57 52.04 214.68 52.04 214.8 52.03C214.91 52.02 215.03 52.01 215.14 51.98C215.26 51.96 215.37 51.94 215.48 51.9C215.59 51.87 215.7 51.83 215.81 51.78C215.88 51.74 215.94 51.7 216 51.64C216.06 51.59 216.1 51.53 216.14 51.46C216.18 51.39 216.21 51.32 216.23 51.24C216.25 51.17 216.25 51.09 216.25 51.01C216.25 50.94 216.24 50.88 216.23 50.81C216.21 50.75 216.19 50.68 216.16 50.62C216.13 50.56 216.1 50.51 216.06 50.45C216.02 50.4 215.97 50.35 215.92 50.31C215.81 50.25 215.69 50.2 215.57 50.15C215.45 50.11 215.33 50.08 215.21 50.05C215.08 50.03 214.96 50.02 214.83 50.01C214.7 50.01 214.58 50.01 214.45 50.03L214.45 52.03Z" />
	<path id="Layer" class="shp8" d="M219.13 49.34L222.43 49.34L222.43 50.13L219.94 50.13L219.94 51.56L222.44 51.56L222.44 52.34L219.94 52.34L219.94 54.34L222.44 54.34L222.44 55.12L219.14 55.12L219.13 49.34Z" />
	<path id="Layer" fill-rule="evenodd" class="shp8" d="M224.47 49.34L225.76 49.34C225.9 49.33 226.04 49.34 226.17 49.35C226.31 49.37 226.45 49.4 226.58 49.44C226.71 49.48 226.84 49.53 226.96 49.59C227.09 49.65 227.21 49.72 227.32 49.8C227.42 49.87 227.5 49.94 227.58 50.03C227.65 50.12 227.72 50.22 227.77 50.32C227.83 50.42 227.87 50.53 227.89 50.65C227.92 50.76 227.93 50.87 227.93 50.99C227.93 51.08 227.92 51.17 227.9 51.26C227.88 51.35 227.86 51.44 227.83 51.53C227.79 51.61 227.75 51.69 227.7 51.77C227.66 51.85 227.6 51.92 227.54 51.99C227.46 52.07 227.37 52.15 227.28 52.21C227.18 52.28 227.08 52.34 226.98 52.4C226.88 52.45 226.77 52.49 226.66 52.53C226.55 52.56 226.43 52.59 226.32 52.61L228.05 55.08L227.11 55.08L225.46 52.71L225.28 52.71L225.28 55.08L224.47 55.08L224.47 49.34ZM225.28 52.03C226.48 52.03 227.08 51.72 227.08 51.03C227.08 50.98 227.08 50.92 227.07 50.87C227.06 50.82 227.05 50.77 227.03 50.71C227.01 50.66 226.99 50.62 226.96 50.57C226.94 50.52 226.91 50.48 226.87 50.44C226.83 50.4 226.79 50.36 226.75 50.33C226.71 50.29 226.66 50.26 226.62 50.23C226.57 50.21 226.52 50.18 226.47 50.16C226.42 50.15 226.36 50.13 226.31 50.12C226.23 50.1 226.14 50.09 226.05 50.07C225.97 50.06 225.88 50.05 225.8 50.04C225.71 50.04 225.63 50.03 225.54 50.03C225.45 50.03 225.37 50.03 225.28 50.03L225.28 52.03Z" />
	<path id="Layer" class="shp8" d="M229.72 49.34L233.36 49.34L233.36 50.13L231.94 50.13L231.94 55.13L231.13 55.13L231.13 50.13L229.72 50.13L229.72 49.34Z" />
	<path id="Layer" class="shp8" d="M235.22 49.34L236.02 49.34L236.02 55.1L235.22 55.1L235.22 49.34Z" />
	<path id="Layer" class="shp8" d="M241.94 49.98L241.28 50.49C241.24 50.45 241.21 50.42 241.17 50.38C241.13 50.35 241.09 50.32 241.06 50.28C241.02 50.25 240.98 50.22 240.94 50.19C240.89 50.16 240.85 50.13 240.81 50.1C240.76 50.08 240.71 50.05 240.66 50.04C240.61 50.02 240.56 50 240.51 49.99C240.46 49.98 240.4 49.97 240.35 49.97C240.3 49.97 240.24 49.97 240.19 49.97C240.13 49.97 240.07 49.97 240 49.98C239.94 49.98 239.88 50 239.82 50.01C239.76 50.03 239.7 50.05 239.65 50.07C239.59 50.1 239.53 50.13 239.48 50.16C239.44 50.19 239.4 50.22 239.37 50.26C239.33 50.29 239.31 50.33 239.28 50.38C239.26 50.42 239.24 50.47 239.23 50.51C239.22 50.56 239.21 50.61 239.21 50.66C239.21 50.7 239.22 50.75 239.23 50.79C239.24 50.84 239.26 50.88 239.28 50.92C239.3 50.96 239.32 50.99 239.35 51.03C239.38 51.06 239.41 51.09 239.45 51.12C239.51 51.17 239.58 51.21 239.64 51.25C239.71 51.29 239.77 51.33 239.84 51.37C239.91 51.4 239.98 51.44 240.05 51.47C240.12 51.5 240.19 51.53 240.26 51.56C240.34 51.59 240.41 51.62 240.49 51.66C240.57 51.69 240.64 51.72 240.71 51.76C240.79 51.8 240.86 51.84 240.93 51.88C241.01 51.92 241.08 51.96 241.15 52C241.2 52.03 241.25 52.06 241.29 52.1C241.34 52.13 241.39 52.17 241.43 52.21C241.48 52.24 241.52 52.28 241.56 52.32C241.6 52.36 241.64 52.41 241.68 52.45C241.71 52.49 241.74 52.53 241.77 52.57C241.8 52.61 241.83 52.66 241.85 52.7C241.88 52.75 241.9 52.79 241.92 52.84C241.94 52.88 241.96 52.93 241.98 52.98C242.04 53.13 242.07 53.3 242.08 53.46C242.09 53.62 242.07 53.79 242.03 53.95C241.99 54.11 241.93 54.26 241.85 54.4C241.76 54.54 241.66 54.67 241.54 54.78C241.45 54.86 241.36 54.94 241.26 55C241.16 55.07 241.05 55.12 240.94 55.16C240.83 55.21 240.71 55.24 240.6 55.26C240.48 55.28 240.36 55.29 240.24 55.29C240.12 55.29 240.01 55.29 239.89 55.27C239.78 55.25 239.66 55.23 239.55 55.2C239.44 55.16 239.33 55.12 239.22 55.07C239.12 55.02 239.02 54.97 238.92 54.9C238.82 54.83 238.72 54.74 238.63 54.66C238.55 54.57 238.46 54.47 238.39 54.37C238.32 54.27 238.25 54.16 238.19 54.05C238.13 53.94 238.08 53.83 238.04 53.71L238.85 53.49C238.9 53.63 238.96 53.77 239.05 53.89C239.14 54.01 239.25 54.12 239.37 54.21C239.49 54.3 239.62 54.37 239.77 54.42C239.91 54.46 240.06 54.49 240.21 54.49C240.28 54.49 240.34 54.49 240.41 54.48C240.48 54.47 240.54 54.45 240.6 54.43C240.67 54.41 240.73 54.38 240.79 54.35C240.84 54.31 240.9 54.27 240.95 54.23C241 54.19 241.04 54.15 241.08 54.1C241.11 54.05 241.14 53.99 241.17 53.94C241.19 53.88 241.21 53.82 241.22 53.76C241.24 53.7 241.24 53.64 241.24 53.58C241.24 53.54 241.23 53.5 241.23 53.46C241.22 53.41 241.21 53.37 241.2 53.33C241.19 53.29 241.17 53.26 241.15 53.22C241.13 53.18 241.11 53.14 241.09 53.11C241.06 53.07 241.04 53.03 241.01 53C240.98 52.96 240.95 52.93 240.91 52.9C240.88 52.86 240.85 52.83 240.81 52.8C240.78 52.77 240.74 52.75 240.7 52.72C240.64 52.68 240.59 52.65 240.53 52.62C240.47 52.59 240.41 52.56 240.35 52.53C240.29 52.5 240.23 52.47 240.17 52.44C240.1 52.42 240.04 52.39 239.98 52.37C239.91 52.35 239.85 52.32 239.78 52.29C239.72 52.27 239.65 52.24 239.59 52.21C239.52 52.18 239.46 52.15 239.4 52.11C239.33 52.08 239.27 52.05 239.21 52.01C239.17 51.98 239.12 51.96 239.08 51.93C239.04 51.9 239 51.87 238.96 51.83C238.92 51.8 238.88 51.77 238.85 51.73C238.81 51.7 238.77 51.66 238.74 51.62C238.71 51.59 238.68 51.55 238.65 51.51C238.63 51.48 238.6 51.44 238.58 51.4C238.55 51.36 238.53 51.32 238.51 51.28C238.49 51.24 238.47 51.2 238.45 51.16C238.43 51.12 238.42 51.08 238.41 51.04C238.4 51 238.39 50.96 238.38 50.92C238.37 50.88 238.37 50.84 238.37 50.8C238.36 50.76 238.36 50.72 238.36 50.68C238.36 50.58 238.37 50.48 238.39 50.38C238.42 50.28 238.45 50.18 238.49 50.09C238.54 50 238.59 49.91 238.66 49.83C238.72 49.76 238.79 49.68 238.87 49.62C238.96 49.55 239.05 49.48 239.15 49.43C239.25 49.37 239.35 49.33 239.46 49.29C239.56 49.25 239.67 49.23 239.78 49.21C239.89 49.19 240.01 49.19 240.12 49.19C240.21 49.19 240.29 49.2 240.38 49.2C240.46 49.21 240.55 49.23 240.63 49.24C240.71 49.26 240.8 49.28 240.88 49.3C240.96 49.33 241.04 49.36 241.12 49.39C241.2 49.42 241.28 49.46 241.35 49.5C241.43 49.54 241.5 49.58 241.57 49.63C241.64 49.68 241.7 49.74 241.77 49.79C241.83 49.85 241.89 49.91 241.94 49.98Z" />
	<path id="Layer" class="shp8" d="M243.94 49.34L247.24 49.34L247.24 50.13L244.74 50.13L244.74 51.56L247.24 51.56L247.24 52.34L244.74 52.34L244.74 54.34L247.24 54.34L247.24 55.12L243.94 55.12L243.94 49.34Z" />
	<path id="Layer" class="shp8" d="M248.94 54.57C248.94 54.53 248.94 54.49 248.95 54.45C248.96 54.41 248.97 54.37 248.99 54.33C249 54.3 249.02 54.26 249.05 54.23C249.07 54.2 249.1 54.17 249.13 54.14C249.16 54.11 249.19 54.08 249.22 54.06C249.26 54.04 249.29 54.02 249.33 54C249.37 53.99 249.41 53.98 249.45 53.97C249.49 53.96 249.53 53.96 249.57 53.96C249.61 53.96 249.65 53.96 249.69 53.97C249.73 53.98 249.77 53.99 249.81 54.01C249.85 54.02 249.89 54.04 249.92 54.06C249.96 54.09 249.99 54.11 250.02 54.14C250.08 54.2 250.12 54.26 250.15 54.34C250.19 54.41 250.2 54.49 250.2 54.57C250.2 54.65 250.19 54.73 250.15 54.8C250.12 54.88 250.08 54.94 250.02 55C249.99 55.03 249.96 55.06 249.92 55.08C249.89 55.1 249.85 55.12 249.81 55.14C249.77 55.15 249.73 55.16 249.69 55.17C249.65 55.18 249.61 55.18 249.57 55.18C249.53 55.18 249.49 55.18 249.45 55.17C249.41 55.16 249.37 55.15 249.33 55.14C249.29 55.12 249.26 55.1 249.22 55.08C249.19 55.06 249.16 55.03 249.13 55C249.1 54.97 249.07 54.94 249.05 54.91C249.02 54.88 249 54.84 248.99 54.81C248.97 54.77 248.96 54.73 248.95 54.69C248.94 54.65 248.94 54.61 248.94 54.57Z" />
	<path id="Layer" class="shp8" d="M255.75 49.34L259.05 49.34L259.05 50.13L256.56 50.13L256.56 51.56L259.05 51.56L259.05 52.34L256.56 52.34L256.56 54.34L259.05 54.34L259.05 55.12L255.75 55.12L255.75 49.34Z" />
	<path id="Layer" class="shp8" d="M260.74 49.34L261.63 49.34L262.94 51.46L264.26 49.36L265.17 49.36L263.4 52.18L265.22 55.12L264.32 55.12L262.94 52.88L261.55 55.1L260.64 55.1L262.48 52.16L260.74 49.34Z" />
	<path id="Layer" class="shp8" d="M271.73 49.54L271.73 50.46C271.59 50.39 271.45 50.33 271.31 50.27C271.17 50.22 271.02 50.17 270.87 50.13C270.72 50.09 270.57 50.06 270.42 50.04C270.27 50.02 270.11 50 269.96 50C269.8 50 269.64 50.01 269.48 50.03C269.33 50.06 269.17 50.1 269.02 50.16C268.87 50.21 268.73 50.28 268.59 50.36C268.46 50.45 268.33 50.54 268.21 50.65C267.98 50.85 267.8 51.1 267.68 51.37C267.56 51.65 267.49 51.95 267.49 52.25C267.49 52.55 267.56 52.85 267.68 53.13C267.8 53.4 267.98 53.65 268.21 53.85C268.34 53.96 268.47 54.05 268.61 54.13C268.76 54.22 268.91 54.28 269.06 54.34C269.22 54.39 269.38 54.43 269.54 54.46C269.7 54.48 269.87 54.49 270.03 54.49C270.18 54.49 270.32 54.47 270.47 54.45C270.61 54.43 270.76 54.4 270.9 54.36C271.04 54.31 271.18 54.27 271.32 54.21C271.45 54.15 271.58 54.08 271.71 54.01L271.71 54.9C271.58 54.97 271.44 55.03 271.29 55.08C271.15 55.14 271.01 55.18 270.86 55.22C270.71 55.25 270.56 55.28 270.41 55.3C270.26 55.31 270.11 55.32 269.96 55.32C269.74 55.32 269.53 55.31 269.31 55.27C269.1 55.23 268.89 55.18 268.69 55.1C268.48 55.02 268.29 54.93 268.11 54.81C267.92 54.7 267.75 54.57 267.59 54.42C267.43 54.28 267.29 54.13 267.17 53.97C267.04 53.8 266.94 53.62 266.85 53.43C266.77 53.25 266.7 53.05 266.66 52.85C266.61 52.64 266.59 52.44 266.59 52.23C266.59 52.03 266.61 51.82 266.66 51.62C266.7 51.42 266.77 51.23 266.85 51.04C266.94 50.86 267.04 50.68 267.17 50.52C267.29 50.36 267.43 50.21 267.59 50.08C267.75 49.93 267.92 49.8 268.1 49.68C268.28 49.56 268.47 49.47 268.67 49.39C268.87 49.31 269.08 49.25 269.3 49.21C269.51 49.17 269.72 49.16 269.94 49.16C270.09 49.16 270.25 49.17 270.4 49.19C270.55 49.21 270.7 49.23 270.85 49.26C271 49.29 271.15 49.33 271.3 49.38C271.45 49.43 271.59 49.48 271.73 49.54L271.73 49.54Z" />
	<path id="Layer" class="shp8" d="M273.59 49.34L276.88 49.34L276.88 50.13L274.39 50.13L274.39 51.56L276.88 51.56L276.88 52.34L274.39 52.34L274.39 54.34L276.88 54.34L276.88 55.12L273.59 55.12L273.59 49.34Z" />
	<path id="Layer" class="shp8" d="M278.94 49.34L279.74 49.34L279.74 54.34L281.68 54.34L281.68 55.12L278.94 55.12L278.94 49.34Z" />
	<path id="Layer" class="shp8" d="M283.55 49.34L284.36 49.34L284.36 54.34L286.3 54.34L286.3 55.12L283.55 55.12L283.55 49.34Z" />
	<path id="Layer" class="shp8" d="M288.01 49.34L291.31 49.34L291.31 50.13L288.81 50.13L288.81 51.56L291.31 51.56L291.31 52.34L288.81 52.34L288.81 54.34L291.31 54.34L291.31 55.12L288.01 55.12L288.01 49.34Z" />
	<path id="Layer" class="shp8" d="M293.17 49.11L297.57 53.48L297.57 49.34L298.39 49.34L298.39 55.34L293.99 50.99L293.99 55.08L293.17 55.08L293.17 49.11Z" />
	<path id="Layer" class="shp8" d="M305.37 49.54L305.37 50.46C305.23 50.39 305.09 50.33 304.95 50.27C304.81 50.22 304.66 50.17 304.51 50.13C304.36 50.09 304.21 50.06 304.06 50.04C303.91 50.02 303.75 50 303.6 50C303.44 50 303.28 50.01 303.12 50.03C302.97 50.06 302.81 50.1 302.66 50.16C302.51 50.21 302.37 50.28 302.23 50.37C302.1 50.45 301.97 50.54 301.85 50.65C301.62 50.85 301.44 51.1 301.32 51.37C301.2 51.65 301.13 51.95 301.13 52.25C301.13 52.55 301.2 52.85 301.32 53.13C301.44 53.4 301.62 53.65 301.85 53.85C301.98 53.96 302.11 54.05 302.25 54.13C302.4 54.22 302.55 54.28 302.7 54.34C302.86 54.39 303.02 54.43 303.18 54.46C303.34 54.48 303.51 54.49 303.67 54.49C303.82 54.49 303.96 54.47 304.11 54.45C304.25 54.43 304.4 54.4 304.54 54.36C304.68 54.31 304.82 54.27 304.96 54.21C305.09 54.15 305.22 54.08 305.35 54.01L305.35 54.9C305.22 54.97 305.08 55.03 304.93 55.08C304.79 55.14 304.65 55.18 304.5 55.22C304.35 55.25 304.2 55.28 304.05 55.3C303.9 55.31 303.75 55.32 303.6 55.32C303.38 55.32 303.17 55.31 302.95 55.27C302.74 55.23 302.53 55.18 302.33 55.1C302.13 55.02 301.93 54.93 301.75 54.81C301.56 54.7 301.39 54.57 301.23 54.42C301.07 54.28 300.93 54.13 300.81 53.97C300.68 53.8 300.58 53.62 300.49 53.43C300.41 53.25 300.34 53.05 300.3 52.85C300.25 52.64 300.23 52.44 300.23 52.23C300.23 52.03 300.25 51.82 300.3 51.62C300.34 51.42 300.41 51.23 300.5 51.05C300.58 50.86 300.69 50.69 300.81 50.52C300.93 50.36 301.07 50.21 301.23 50.08C301.39 49.94 301.55 49.81 301.73 49.69C301.91 49.58 302.11 49.49 302.3 49.41C302.5 49.33 302.71 49.28 302.92 49.24C303.13 49.2 303.34 49.19 303.55 49.19C303.71 49.19 303.86 49.19 304.02 49.21C304.17 49.22 304.32 49.24 304.48 49.27C304.63 49.3 304.78 49.34 304.93 49.38C305.08 49.43 305.23 49.48 305.37 49.54Z" />
	<path id="Layer" class="shp8" d="M307.23 49.34L310.53 49.34L310.53 50.13L308.03 50.13L308.03 51.56L310.53 51.56L310.53 52.34L308.03 52.34L308.03 54.34L310.53 54.34L310.53 55.12L307.23 55.12L307.23 49.34Z" />
	<path id="Layer" class="shp8" d="M312.22 54.57C312.22 54.53 312.22 54.49 312.23 54.45C312.24 54.41 312.25 54.37 312.26 54.34C312.28 54.3 312.3 54.26 312.32 54.23C312.34 54.2 312.37 54.17 312.4 54.14C312.46 54.08 312.53 54.04 312.61 54.01C312.68 53.97 312.77 53.96 312.85 53.96C312.93 53.96 313.02 53.97 313.09 54.01C313.17 54.04 313.24 54.08 313.3 54.14C313.36 54.2 313.4 54.26 313.43 54.34C313.47 54.41 313.48 54.49 313.48 54.57C313.48 54.65 313.47 54.73 313.43 54.8C313.4 54.88 313.36 54.94 313.3 55C313.27 55.03 313.24 55.06 313.2 55.08C313.17 55.1 313.13 55.12 313.09 55.14C313.05 55.15 313.01 55.16 312.97 55.17C312.93 55.18 312.89 55.18 312.85 55.18C312.81 55.18 312.77 55.18 312.73 55.17C312.69 55.16 312.65 55.15 312.61 55.13C312.57 55.12 312.53 55.1 312.5 55.08C312.46 55.05 312.43 55.03 312.4 55C312.37 54.97 312.34 54.94 312.32 54.91C312.3 54.88 312.28 54.84 312.26 54.8C312.25 54.77 312.24 54.73 312.23 54.69C312.22 54.65 312.22 54.61 312.22 54.57L312.22 54.57Z" />
</svg>